<svg width="65" height="64" viewBox="0 0 65 64" fill="none" xmlns="http://www.w3.org/2000/svg">
<g clip-path="url(#clip0_595_1255)">
<path d="M63.9508 48.0866H59.4065V31.9593H59.7701C60.0439 31.9593 60.2658 31.7374 60.2658 31.4636C60.2658 31.1899 60.0439 30.968 59.7701 30.968H59.3984V29.4645C59.3984 29.1907 59.1765 28.9682 58.9028 28.9682H58.1178V26.0354C58.123 25.2988 57.919 24.5755 57.53 23.9496C57.141 23.3237 56.5831 22.8206 55.9198 22.499V21.2767C55.9198 21.0029 55.6979 20.781 55.4241 20.781C55.1504 20.781 54.9285 21.0029 54.9285 21.2767V22.4581C54.2767 22.801 53.7286 23.3122 53.3407 23.9381C52.9528 24.5639 52.739 25.2826 52.7223 26.0191V26.0606V28.9278H51.8959L51.8965 28.9272C51.7639 28.9249 51.6365 28.9762 51.5432 29.0696C51.4498 29.1635 51.3985 29.2909 51.4002 29.4228V30.9264H51.0205C50.7467 30.9264 50.5248 31.1483 50.5248 31.422C50.5248 31.6958 50.7467 31.9177 51.0205 31.9177H51.4002V34.3469H43.7168V31.3563C43.7168 30.5927 43.4932 29.8458 43.0731 29.2083C42.6535 28.5715 42.0553 28.0712 41.354 27.7704V26.5803C41.354 26.3065 41.1321 26.0847 40.8583 26.0847C40.5846 26.0847 40.3627 26.3065 40.3627 26.5803V27.8199C39.8313 28.1254 39.3651 28.5323 38.991 29.0181C38.8268 28.6758 38.5865 28.3767 38.2885 28.1421V25.7954H38.7265C39.0003 25.7954 39.2222 25.5735 39.2222 25.2997C39.2222 25.026 39.0003 24.8041 38.7265 24.8041H38.2061C37.9583 23.6146 37.008 20.3094 34.0751 19.3845V18.7897C34.0716 18.0446 33.6803 17.3558 33.0423 16.9721V15.1624C33.0423 14.8886 32.8204 14.6667 32.5467 14.6667C32.2729 14.6667 32.051 14.8886 32.051 15.1624V16.9882C31.4038 17.3599 31.0091 18.052 31.0183 18.7978V19.343C28.3741 20.1113 27.1847 22.9369 26.8872 24.8043H26.383C26.1092 24.8043 25.8873 25.0262 25.8873 25.2999C25.8873 25.5737 26.1092 25.7955 26.383 25.7955H26.821V28.1423C26.5201 28.3757 26.2769 28.6754 26.1104 29.0183C25.7363 28.5324 25.2701 28.1256 24.7387 27.8201V26.5805C24.7387 26.3067 24.5169 26.0848 24.2431 26.0848C23.9693 26.0848 23.7475 26.3067 23.7475 26.5805V27.7538C23.0323 28.0472 22.4208 28.5457 21.9897 29.1871C21.5586 29.8286 21.3275 30.5835 21.3264 31.3564V34.4051H13.6348V31.9592H14.0146C14.2884 31.9592 14.5102 31.7373 14.5102 31.4636C14.5102 31.1898 14.2884 30.9679 14.0146 30.9679H13.6348V29.4644C13.6365 29.3318 13.5853 29.2045 13.4919 29.1111C13.3985 29.0177 13.2712 28.9664 13.1386 28.9682H12.3122L12.3127 26.1015V26.06C12.296 25.3241 12.0822 24.6054 11.6944 23.9795C11.3065 23.353 10.7584 22.8424 10.1066 22.4989V21.2766C10.1066 21.0028 9.88469 20.7809 9.61093 20.7809C9.33718 20.7809 9.11529 21.0028 9.11529 21.2766V22.4995V22.4989C8.45195 22.8205 7.89409 23.3236 7.50507 23.9495C7.11606 24.5754 6.91205 25.2987 6.91723 26.0352V28.9681H6.09078H6.09136C5.81761 28.9681 5.59572 29.1906 5.59572 29.4643V30.9679H5.24013C4.96637 30.9679 4.74449 31.1898 4.74449 31.4635C4.74449 31.7373 4.96637 31.9592 5.24013 31.9592H5.61185V48.0865H1.05959C0.918395 48.068 0.776042 48.1112 0.668856 48.2057C0.561662 48.2997 0.5 48.4357 0.5 48.578C0.5 48.7204 0.561666 48.8564 0.668856 48.9503C0.776051 49.0449 0.918399 49.0881 1.05959 49.0696H63.9502C64.0914 49.0881 64.2338 49.0449 64.341 48.9503C64.4482 48.8564 64.5098 48.7204 64.5098 48.578C64.5098 48.4357 64.4482 48.2997 64.341 48.2057C64.2338 48.1112 64.0914 48.068 63.9502 48.0865L63.9508 48.0866ZM55.4075 44.4183C55.2755 44.416 55.1482 44.4673 55.0548 44.5607C54.9614 44.6546 54.9096 44.782 54.9119 44.914V46.2274H52.4331V42.4352H58.4482V46.2274H55.9694V44.914C55.9706 44.7705 55.9095 44.6327 55.8017 44.5376C55.6939 44.4425 55.5504 44.3993 55.4075 44.4183ZM49.1614 46.2274C48.9873 45.4655 48.4899 44.8166 47.7984 44.4512C47.6606 44.3809 47.4981 44.3809 47.3604 44.4512C46.6699 44.8212 46.1685 45.4667 45.9807 46.2274H43.7337V42.4353H51.409V46.2274H49.1614ZM48.1453 46.2274H47.0054C47.1218 45.9289 47.3229 45.6707 47.5834 45.484C47.8353 45.6759 48.0295 45.9329 48.1453 46.2274ZM41.0318 44.4017C40.7581 44.4017 40.5362 44.6236 40.5362 44.8973V46.2274H39.2222V42.4353H42.7417V46.2274H41.5274V44.914C41.5274 44.6403 41.3055 44.4184 41.0317 44.4184L41.0318 44.4017ZM24.0119 44.4017C23.7382 44.4017 23.5157 44.6236 23.5157 44.8973V46.2274H22.3014V42.4353H25.8209V46.2274H24.5075V44.914C24.5075 44.6403 24.2856 44.4184 24.0119 44.4184L24.0119 44.4017ZM19.1208 46.2274C18.9433 45.4667 18.4465 44.8195 17.7572 44.4512C17.6201 44.3809 17.457 44.3809 17.3192 44.4512C16.6236 44.8172 16.1182 45.4638 15.9314 46.2274H13.6349V42.4353H21.3102V46.2274H19.1208ZM18.0961 46.2274H16.9561C17.0726 45.9289 17.2737 45.6707 17.5342 45.484C17.7912 45.6707 17.9866 45.9295 18.0961 46.2274ZM9.63573 44.4183C9.36197 44.4183 9.14009 44.6402 9.14009 44.914V46.2274H6.66132V42.4353H12.6764V46.2274H10.1976V44.914C10.2017 44.7693 10.1412 44.6304 10.0328 44.5342C9.92446 44.4385 9.77865 44.3959 9.63573 44.4183ZM22.3015 35.7263V35.6601V31.9013H25.821V32.5375C25.8175 32.5537 25.8175 32.5704 25.821 32.5871V36.6438H22.3015V35.7263ZM28.1679 28.6537L36.8759 28.6543C37.5704 28.652 38.1502 29.1845 38.2061 29.8767H33.728C33.4704 29.5309 33.1367 29.2479 32.7529 29.0508C32.6146 28.9851 32.4538 28.9851 32.3149 29.0508C31.9282 29.2508 31.5899 29.5326 31.3236 29.8767H26.8376C26.8935 29.1845 27.4727 28.652 28.1677 28.6543L28.1679 28.6537ZM32.0263 25.7952V27.6624H30.374L30.3734 25.7952H32.0263ZM33.0175 27.6624V25.7952H34.6698V27.6624H33.0175ZM58.4146 41.4439H55.9358V40.1466C55.9358 39.8728 55.7139 39.6509 55.4402 39.6509C55.1664 39.6509 54.9445 39.8728 54.9445 40.1466V41.4439H52.4658V37.635H58.4808L58.4146 41.4439ZM51.4083 41.4439H49.1607C48.9734 40.6981 48.4778 40.0676 47.7977 39.7085C47.6589 39.6434 47.4986 39.6434 47.3597 39.7085C46.6803 40.0722 46.1812 40.6998 45.98 41.4439H43.733V37.635H51.4084L51.4083 41.4439ZM48.1038 41.4439H47.0209C47.1437 41.1643 47.3373 40.9223 47.5828 40.7413C47.8202 40.9246 48.0058 41.1666 48.1199 41.4439H48.1038ZM41.0312 39.6181C40.7574 39.6181 40.5355 39.84 40.5355 40.1137V41.411H39.2215V37.6349H42.741V41.4438H41.5267V40.1465C41.5359 40.0093 41.4875 39.8744 41.3936 39.7742C41.2996 39.6745 41.1683 39.6175 41.0312 39.6181ZM31.8684 31.2483C31.888 30.7671 32.1329 30.3233 32.5294 30.0507C32.923 30.3245 33.1622 30.7694 33.1737 31.2483V31.9837H31.8684V31.2483ZM38.2136 33.0828V34.3881H26.8285V33.0828H38.2136ZM28.7286 46.2274H26.8118V35.3795H28.7286V46.2274ZM29.7199 35.3627H35.3217V38.7168L35.3223 38.7174C34.6227 37.903 33.6447 37.3786 32.579 37.2466H32.5047C31.439 37.3786 30.461 37.903 29.7614 38.7174L29.7199 35.3627ZM36.3297 41.2786L36.3303 35.3795H38.2471V46.2274H36.3136L36.3297 41.2786ZM42.7412 36.6272H39.2217V32.5872C39.2252 32.5705 39.2252 32.5538 39.2217 32.5376V31.9014H42.7412V36.6272ZM38.2304 32.0749H34.1571V31.2485C34.1663 31.1223 34.1663 30.9949 34.1571 30.8687H38.2467L38.2304 32.0749ZM30.9349 30.852C30.9262 30.9788 30.9262 31.1056 30.9349 31.2324V32.0588H26.8863L26.8869 30.8687L30.9349 30.852ZM25.8206 37.6353V41.4441H24.5072V40.1468C24.5072 39.8731 24.2853 39.6512 24.0116 39.6512C23.7378 39.6512 23.5154 39.8731 23.5154 40.1468V41.4441H22.3011V37.6353H25.8206ZM21.3098 41.4441H19.1118C18.9234 40.7013 18.4318 40.0719 17.7569 39.7088C17.6186 39.6437 17.4578 39.6437 17.3189 39.7088C16.651 40.0753 16.1657 40.7041 15.9807 41.4441H13.6346V37.6353H21.3099L21.3098 41.4441ZM18.071 41.4441H16.9806C17.097 41.1635 17.2883 40.9203 17.5338 40.7416C17.7765 40.9197 17.9626 41.1635 18.071 41.4441ZM12.6426 41.4441H10.1639V40.1468C10.1639 39.8731 9.94197 39.6512 9.66822 39.6512C9.39446 39.6512 9.17258 39.8731 9.17258 40.1468V41.4441H6.69381V37.6353H12.676L12.6426 41.4441ZM29.72 41.2707C29.7529 40.5203 30.0508 39.8057 30.5603 39.2535C31.0703 38.7014 31.7585 38.3476 32.5043 38.2548C33.2558 38.3406 33.952 38.691 34.4683 39.2437C34.9846 39.7964 35.2872 40.5151 35.3218 41.2706V46.2281L29.72 46.2276L29.72 41.2707ZM55.3325 23.3169H55.3319C56.2661 23.7139 56.9266 24.5681 57.0752 25.572H53.7707C53.9384 24.6285 54.5205 23.8096 55.3567 23.3417L55.3325 23.3169ZM53.6802 26.5718H57.0926V28.9428H55.9025V27.9186C55.9025 27.6449 55.68 27.423 55.4063 27.423C55.2743 27.4207 55.147 27.472 55.0536 27.5654C54.9602 27.6587 54.9084 27.7867 54.9107 27.9186V28.9681L53.6964 28.9675L53.6802 26.5718ZM52.3829 29.9346H58.398V30.9426H52.3992L52.3829 29.9346ZM58.398 31.9339L58.3974 36.6436H52.3992V31.9587L58.398 31.9339ZM51.3918 35.3544L51.3912 36.6436H43.7325V35.3792L51.3918 35.3544ZM40.8988 28.6207H40.8982C41.8405 29.0183 42.509 29.8747 42.6663 30.8845H39.2458C39.4308 29.9226 40.0457 29.098 40.9147 28.6455L40.8988 28.6207ZM36.8588 27.6375H35.6439V25.795H37.2962V27.7039C37.1573 27.6768 37.0161 27.6629 36.8749 27.6624L36.8588 27.6375ZM31.9837 18.7973C31.9704 18.4049 32.1693 18.0355 32.5041 17.8309C32.8269 18.0441 33.0239 18.402 33.0332 18.7893V19.1939C32.8222 19.1645 32.6096 19.1477 32.3969 19.1443H31.9589L31.9837 18.7973ZM32.4217 20.1356C35.8006 20.1356 36.8829 23.4401 37.1889 24.8038H27.8526C28.1419 23.4569 29.1995 20.1356 32.4217 20.1356ZM27.7535 25.7949H29.4058V27.6622H28.1667C28.0289 27.6495 27.8906 27.6495 27.7535 27.6622L27.7535 25.7949ZM24.1261 28.6453C24.9912 29.1116 25.5986 29.9438 25.7784 30.9092H22.3579C22.5095 29.8966 23.1805 29.0372 24.1261 28.6453ZM21.3085 35.3791L21.3091 36.6435H13.6337V35.3791H21.3085ZM9.68418 23.3415C10.5515 23.8043 11.1601 24.6383 11.3364 25.6053H7.96552C8.10729 24.6037 8.75753 23.7467 9.68418 23.3415ZM7.93277 26.5965H11.3452V28.9674H10.1303V27.9185C10.1326 27.7865 10.0813 27.6586 9.98735 27.5652C9.89398 27.4719 9.76662 27.4206 9.63465 27.4229C9.36089 27.4229 9.13901 27.6448 9.13901 27.9185V28.968L7.93278 28.9674L7.93277 26.5965ZM6.6274 29.9593H12.6752V30.9673H6.6274V29.9593ZM12.6752 31.9586V36.6435H6.6274V31.9586H12.6752ZM6.6274 48.0859V47.2594H58.4144V48.0859H6.6274Z" fill="#E6E6E6"/>
<path d="M9.63348 35.0827C9.94814 35.0861 10.234 34.8988 10.3567 34.609C10.4795 34.3191 10.4155 33.9836 10.1936 33.76C9.97234 33.5359 9.6375 33.4684 9.34646 33.5877C9.05541 33.7076 8.86523 33.9911 8.86523 34.3064C8.86523 34.7317 9.20758 35.0781 9.63348 35.0827Z" fill="#E6E6E6"/>
<path d="M24.0118 33.3638C23.7381 33.3638 23.5156 33.5857 23.5156 33.8594V34.6858C23.5156 34.9596 23.7381 35.1815 24.0118 35.1815C24.2856 35.1815 24.5075 34.9596 24.5075 34.6858V33.8346C24.4942 33.5707 24.2758 33.3638 24.0118 33.3638Z" fill="#E6E6E6"/>
<path d="M55.4081 35.0827C55.7222 35.0827 56.0058 34.8937 56.1256 34.6032C56.2461 34.3133 56.1798 33.979 55.9574 33.7572C55.7355 33.5347 55.4012 33.4684 55.1113 33.5889C54.8209 33.7088 54.6318 33.9923 54.6318 34.3064C54.6318 34.7352 54.9794 35.0827 55.4081 35.0827Z" fill="#E6E6E6"/>
<path d="M41.0305 35.1814C41.3042 35.1814 41.5261 34.9595 41.5261 34.6857V33.8345C41.5261 33.5607 41.3042 33.3389 41.0305 33.3389C40.7567 33.3389 40.5348 33.5607 40.5348 33.8345V34.6609C40.5279 34.7964 40.5769 34.9289 40.6708 35.0275C40.7642 35.126 40.8944 35.1814 41.0305 35.1814Z" fill="#E6E6E6"/>
</g>
<defs>
<clipPath id="clip0_595_1255">
<rect width="64" height="64" fill="white" transform="translate(0.5)"/>
</clipPath>
</defs>
</svg>
