<svg width="65" height="64" viewBox="0 0 65 64" fill="none" xmlns="http://www.w3.org/2000/svg">
<g id="noun-gateway-of-india-2165512" clip-path="url(#clip0_64_1440)">
<g id="Group">
<path id="Vector" d="M16.5023 40.0192C16.8767 40.0192 17.2144 39.7938 17.3578 39.4478C17.5004 39.1017 17.4217 38.704 17.157 38.4392C16.8922 38.1745 16.4939 38.0951 16.1478 38.2384C15.8024 38.3818 15.5764 38.7195 15.5764 39.0933C15.5764 39.3393 15.6739 39.5743 15.8476 39.748C16.0213 39.9217 16.2569 40.0192 16.5023 40.0192ZM16.5023 38.9086C16.561 38.9086 16.6178 38.9319 16.6592 38.9732C16.7011 39.0152 16.7244 39.072 16.7244 39.1307C16.7244 39.3715 16.2802 39.3715 16.2802 39.1307C16.2802 39.008 16.3796 38.9086 16.5023 38.9086Z" fill="#E6E6E6"/>
<path id="Vector_2" d="M9.28261 39.1298C9.28261 38.7554 9.05727 38.4177 8.71121 38.2743C8.36513 38.131 7.96742 38.2104 7.7027 38.4751C7.43798 38.7398 7.35857 39.1382 7.50191 39.4836C7.64524 39.8297 7.98292 40.055 8.35675 40.055C8.60275 40.055 8.83777 39.9575 9.01144 39.7839C9.18512 39.6108 9.28261 39.3752 9.28261 39.1298ZM8.17208 39.1298C8.17208 39.0072 8.27151 38.9077 8.39419 38.9077C8.51687 38.9077 8.6163 39.0071 8.6163 39.1298C8.6163 39.37 8.17208 39.37 8.17208 39.1298Z" fill="#E6E6E6"/>
<path id="Vector_3" d="M56.5685 38.2407C56.1941 38.2407 55.8564 38.4667 55.7131 38.8121C55.5697 39.1582 55.6491 39.5566 55.9138 39.8213C56.1786 40.086 56.5769 40.1648 56.9224 40.0221C57.2684 39.8787 57.4938 39.5411 57.4938 39.1666C57.4938 38.9212 57.3963 38.6856 57.2226 38.5119C57.0489 38.3389 56.8139 38.2407 56.5685 38.2407ZM56.3464 39.1666C56.3464 39.0439 56.4459 38.9445 56.5685 38.9445C56.6273 38.9445 56.6835 38.9677 56.7254 39.0097C56.7668 39.051 56.7907 39.1078 56.7907 39.1666C56.781 39.37 56.3368 39.37 56.3368 39.1298L56.3464 39.1666Z" fill="#E6E6E6"/>
<path id="Vector_4" d="M48.4534 38.2407C48.0789 38.2407 47.7412 38.4667 47.5979 38.8121C47.4552 39.1582 47.5339 39.5566 47.7987 39.8213C48.0634 40.086 48.4617 40.1648 48.8078 40.0221C49.1532 39.8787 49.3792 39.5411 49.3792 39.1666C49.3792 38.9212 49.2811 38.6856 49.108 38.5119C48.9344 38.3389 48.6987 38.2407 48.4534 38.2407ZM48.2312 39.1666C48.2312 39.0439 48.3307 38.9445 48.4534 38.9445C48.576 38.9445 48.6755 39.0439 48.6755 39.1666C48.6755 39.37 48.2403 39.37 48.2403 39.1298L48.2312 39.1666Z" fill="#E6E6E6"/>
<path id="Vector_5" d="M26.7841 35.7795C26.4103 35.7795 26.0726 36.0049 25.9292 36.3509C25.7859 36.697 25.8653 37.0947 26.13 37.3595C26.3948 37.6242 26.7925 37.7036 27.1385 37.5602C27.4846 37.4169 27.7099 37.0799 27.7099 36.7054C27.7099 36.46 27.6124 36.2244 27.4388 36.0507C27.2651 35.877 27.0301 35.7795 26.7841 35.7795ZM26.562 36.7054C26.562 36.5827 26.6614 36.4833 26.7841 36.4833C26.8435 36.4833 26.8997 36.5065 26.9416 36.5479C26.9829 36.5898 27.0062 36.646 27.0062 36.7054C27.0062 36.9178 26.562 36.9178 26.562 36.668L26.562 36.7054Z" fill="#E6E6E6"/>
<path id="Vector_6" d="M39.4383 36.6673C39.4383 36.2934 39.2123 35.9558 38.8669 35.8124C38.5208 35.6691 38.1225 35.7485 37.8578 36.0132C37.593 36.2779 37.5143 36.6756 37.6576 37.0217C37.8003 37.3678 38.138 37.5931 38.5125 37.5931C38.7578 37.5931 38.9935 37.4956 39.1671 37.3219C39.3408 37.1483 39.4383 36.9132 39.4383 36.6673ZM38.3271 36.6673C38.3491 36.5594 38.444 36.482 38.5544 36.482C38.6642 36.482 38.7591 36.5594 38.781 36.6673C38.781 36.9171 38.3271 36.9171 38.3271 36.6673Z" fill="#E6E6E6"/>
<path id="Vector_7" d="M63.8739 49.2471H59.9399V36.0571V35.9828L61.791 33.8999V33.9005C61.9343 33.7372 61.9666 33.5047 61.8743 33.3078C61.7826 33.1141 61.5889 32.9882 61.3745 32.9843H59.9489V30.4386H60.5507C60.8574 30.4386 61.1059 30.19 61.1059 29.8833C61.1059 29.5766 60.8574 29.3281 60.5507 29.3281H59.9489V27.2174C59.9489 26.9107 59.7004 26.6621 59.3937 26.6621H46.3889V19.2571C46.3889 17.6836 44.88 15.8694 44.399 15.3328V13.8885C44.399 13.5818 44.1504 13.3333 43.8438 13.3333C43.5371 13.3333 43.2878 13.5818 43.2878 13.8885V15.3044C42.7694 15.9062 41.3071 17.7295 41.3071 19.1829L41.3077 19.1835V21.7475C41.0617 21.6274 40.7938 21.5615 40.5206 21.5531C40.0254 21.5634 39.5567 21.7778 39.2248 22.1452C38.891 21.7701 38.4126 21.5544 37.9103 21.5531C37.4151 21.5609 36.9451 21.7759 36.6145 22.1452C36.2561 21.8043 35.7764 21.6209 35.2819 21.6364C34.7866 21.6467 34.3179 21.8611 33.986 22.2285C33.6516 21.8533 33.1738 21.6377 32.6715 21.6364C32.1763 21.6467 31.7075 21.8611 31.3757 22.2285C31.0309 21.8572 30.5492 21.6428 30.0431 21.6364C29.5478 21.6467 29.0785 21.8611 28.7472 22.2285C28.4128 21.8533 27.935 21.6377 27.4327 21.6364C26.9368 21.6442 26.4675 21.8592 26.1369 22.2285C25.796 21.8514 25.3117 21.6364 24.8036 21.6364C24.5499 21.6448 24.3006 21.7081 24.0727 21.8211V19.2669C24.0727 17.6934 22.5638 15.8792 22.0828 15.3426V13.8886C22.0828 13.5819 21.8343 13.3334 21.5276 13.3334C21.2202 13.3334 20.9717 13.5819 20.9717 13.8886V15.3045C20.4442 15.9063 18.9818 17.7296 18.9818 19.183V26.588H5.66264C5.35595 26.588 5.10673 26.8372 5.10673 27.1439V29.1991H4.63476V29.1985C4.32807 29.1985 4.07949 29.447 4.07949 29.7537C4.07949 30.0604 4.32807 30.3096 4.63476 30.3096H5.10673V32.8367L3.81092 32.8361C3.58687 32.8238 3.3764 32.9478 3.27955 33.1505C3.18206 33.3532 3.21693 33.5947 3.36672 33.7619L5.06091 36.0572V49.2473H1.12692C0.968733 49.2266 0.808606 49.2751 0.688525 49.3809C0.569079 49.4862 0.5 49.6386 0.5 49.798C0.5 49.9575 0.569084 50.1099 0.688525 50.2151C0.808616 50.321 0.968738 50.3694 1.12692 50.3488H63.8731C64.0313 50.3694 64.1907 50.321 64.3108 50.2151C64.4309 50.1099 64.5 49.9575 64.5 49.798C64.5 49.6385 64.4309 49.4862 64.3108 49.3809C64.1907 49.2751 64.0313 49.2266 63.8731 49.2473L63.8739 49.2471ZM14.992 49.016H9.90101V44.3879H14.992V49.016ZM9.9663 43.2678C10.273 41.8919 11.1659 40.7187 12.4101 40.0556C13.6691 40.7336 14.5814 41.9144 14.9185 43.3045H9.9663V43.2678ZM18.9635 49.2104H16.1032V43.8599C16.1071 43.8263 16.1071 43.7921 16.1032 43.7585C15.9735 40.5374 12.7988 39.0194 12.66 38.9549V38.9543C12.5121 38.8897 12.3442 38.8897 12.197 38.9543C12.0582 39.0188 8.94816 40.509 8.81841 43.7676C8.81325 43.7986 8.81325 43.8296 8.81841 43.8599V49.2473H6.17118V36.7235H18.9629L18.9635 49.2104ZM18.9635 35.5762H6.07892L4.94063 34.0395H18.9629L18.9635 35.5762ZM18.9635 32.9289H6.17115V30.4387H18.9629L18.9635 32.9289ZM18.9635 29.2913H6.17115V27.8283H18.9629L18.9635 29.2913ZM21.5274 16.3332V16.3325C22.1221 17.0292 22.5779 17.8336 22.8691 18.7021H20.1574C20.4693 17.8401 20.9335 17.0408 21.5275 16.3423L21.5274 16.3332ZM22.9434 49.2385H20.0741V45.7577H22.9434V49.2385ZM22.9434 44.6104H20.0741V36.7238H22.9434V44.6104ZM22.9434 35.5765H20.0741V34.0767H22.9434V35.5765ZM22.9434 32.9293H20.0741V27.7732H22.9434V32.9293ZM22.9434 23.5344V26.6257H20.0741V23.4413H22.9434V23.5344ZM22.9434 22.2941H22.0175V21.609C22.0175 21.3024 21.7689 21.0538 21.4622 21.0538C21.1555 21.0538 20.907 21.3024 20.907 21.609V22.2941H19.9811V19.8225H22.8503L22.9434 22.2941ZM37.1974 23.5344C37.209 23.3588 37.2664 23.1896 37.3639 23.0437C37.4834 22.8403 37.7023 22.717 37.9379 22.7196C38.1742 22.7241 38.3944 22.8409 38.5306 23.034C38.6346 23.1818 38.6978 23.3542 38.7153 23.5344V24.0528L37.1974 24.0522V23.5344ZM34.569 23.5344C34.5806 23.3588 34.6381 23.1896 34.7355 23.0437C34.855 22.8403 35.0739 22.717 35.3095 22.7196C35.5523 22.6944 35.7867 22.819 35.9016 23.034C36.0055 23.1818 36.0695 23.3542 36.0869 23.5344V24.0528L34.569 24.0522V23.5344ZM31.9406 23.5344C31.9516 23.3588 32.009 23.1896 32.1072 23.0437C32.2266 22.8403 32.4455 22.717 32.6805 22.7196C32.9194 22.7157 33.1428 22.8345 33.2732 23.034C33.3772 23.1818 33.4404 23.3542 33.4585 23.5344V24.0528L31.9406 24.0522V23.5344ZM29.3122 23.5344H29.3115C29.3232 23.3588 29.3806 23.1896 29.4781 23.0437C29.6021 22.8403 29.8235 22.7176 30.0611 22.7196C30.3136 22.7273 30.5415 22.8732 30.6538 23.0992C30.7578 23.2471 30.8211 23.4188 30.8391 23.5989V24.1174H29.3115L29.3122 23.5344ZM26.6838 23.5344H26.6832C26.6941 23.3588 26.7516 23.1896 26.8497 23.0437C26.9692 22.8403 27.1881 22.717 27.4237 22.7196C27.6607 22.7189 27.8834 22.8371 28.0158 23.034C28.1197 23.1818 28.1836 23.3542 28.2011 23.5344V24.0528L26.6832 24.0522L26.6838 23.5344ZM24.0554 23.5344H24.0541C24.0657 23.3588 24.1232 23.1896 24.2207 23.0437C24.3485 22.8455 24.5681 22.726 24.8037 22.726C25.0394 22.726 25.2595 22.8455 25.3874 23.0437C25.4907 23.1915 25.5546 23.3633 25.572 23.5434V24.0619H24.0541L24.0554 23.5344ZM27.1468 49.21H24.0541V47.9045H27.1454L27.1468 49.21ZM37.3288 49.21H28.2567V41.805C28.2567 38.9267 31.9588 37.5289 32.7827 37.2512C33.6066 37.5379 37.3183 39.0009 37.3183 41.805L37.3288 49.21ZM41.355 49.21H38.4289V47.9045H41.3447L41.355 49.21ZM41.355 46.7572H38.4289V41.805C38.4289 37.853 33.1713 36.2053 32.9493 36.1401C32.8473 36.1079 32.7369 36.1079 32.6349 36.1401C32.4128 36.1957 27.1462 37.7504 27.1462 41.805V46.8029H24.0542V34.0759H41.3448L41.355 46.7572ZM41.355 32.9286H24.0544V30.4384H25.1004V31.6606C25.1004 31.9673 25.3489 32.2159 25.6556 32.2159C25.9623 32.2159 26.2115 31.9673 26.2115 31.6606V30.4384H28.4054V31.66L28.4047 31.6606C28.4022 31.8085 28.4603 31.9512 28.5649 32.0557C28.6695 32.1603 28.8122 32.2185 28.96 32.2159C29.2667 32.2159 29.5153 31.9673 29.5153 31.6606V30.4384H31.6995V31.66L31.7002 31.6606C31.7002 31.9673 31.9488 32.2159 32.2554 32.2159C32.5621 32.2159 32.8107 31.9673 32.8107 31.6606V30.4384H34.995V31.6606C34.995 31.9673 35.2435 32.2159 35.5509 32.2159C35.8576 32.2159 36.1061 31.9673 36.1061 31.6606V30.4384H38.2904V31.6606C38.2904 31.9673 38.539 32.2159 38.8457 32.2159C38.9935 32.2185 39.1369 32.1604 39.2415 32.0558C39.346 31.9512 39.4035 31.8085 39.4009 31.6606V30.4384H41.3075L41.355 32.9286ZM41.355 29.291H24.0544V27.7724H41.3451L41.355 29.291ZM41.355 26.6251H24.0544V25.1995H41.3451L41.355 26.6251ZM41.355 24.0522L39.8267 24.0516V23.5331V23.5338C39.8383 23.3581 39.8958 23.189 39.9933 23.0431C40.1127 22.8397 40.3316 22.7164 40.5673 22.7189C40.8094 22.6989 41.0406 22.8216 41.1594 23.0334C41.2633 23.1812 41.3272 23.3536 41.3447 23.5337L41.355 24.0522ZM43.9098 16.3051L43.9085 16.3044C44.5038 17.0011 44.959 17.8056 45.2508 18.674H42.5294C42.8445 17.8217 43.3087 17.0321 43.8995 16.3419L43.9098 16.3051ZM45.3257 49.2104H42.4552V45.7573H45.3155L45.3257 49.2104ZM45.3257 44.5823H42.4552V36.7234H45.3155L45.3257 44.5823ZM45.3257 35.5484H42.4552V34.0763H45.3155L45.3257 35.5484ZM45.3257 32.9012H42.4552V27.7728H45.3155L45.3257 32.9012ZM45.3257 26.5976H42.4552V23.441H45.3155L45.3257 26.5976ZM45.3257 22.266H44.3999V21.5809H44.3992C44.3992 21.2742 44.1506 21.0257 43.844 21.0257C43.5373 21.0257 43.288 21.2742 43.288 21.5809V22.266H42.4177L42.4184 19.8222H45.2786L45.3257 22.266ZM46.3891 27.7727H58.8385V29.3274L46.3891 29.328V27.7727ZM46.3891 30.4386H58.8385V32.9656H46.3891V30.4386ZM55.0525 49.0151H49.9615L49.9621 44.3871H55.0531L55.0525 49.0151ZM50.0268 43.267C50.3341 41.8911 51.2264 40.7179 52.4705 40.0548C53.7218 40.7243 54.6328 41.8903 54.9789 43.267H50.0268ZM58.8296 49.2095H56.1728V43.859C56.1779 43.8132 56.1779 43.7667 56.1728 43.7202C56.0152 40.5269 52.8684 39.018 52.7386 38.9533C52.5882 38.8894 52.4177 38.8894 52.2666 38.9533C52.1278 39.0179 48.99 40.5177 48.888 43.8124L48.8887 43.8131C48.8874 43.8286 48.8874 43.8441 48.8887 43.8589V49.2463H46.3894V36.7225H58.7923L58.8296 49.2095ZM58.765 35.5754H46.3892V34.0755H60.0977L58.765 35.5754Z" fill="#E6E6E6"/>
</g>
</g>
<defs>
<clipPath id="clip0_64_1440">
<rect width="64" height="64" fill="white" transform="translate(0.5)"/>
</clipPath>
</defs>
</svg>
