<svg width="65" height="64" viewBox="0 0 65 64" fill="none" xmlns="http://www.w3.org/2000/svg">
<g id="noun-vidhana-soudha-2165510" clip-path="url(#clip0_64_1461)">
<g id="Group">
<path id="Vector" d="M63.9334 47.0541H60.8655V32.4563H60.9827C61.2597 32.4563 61.4842 32.2436 61.4842 31.9812C61.4842 31.7287 61.2737 31.522 61.0077 31.5137C61.0544 31.2513 61.0544 30.9839 61.0077 30.7215C60.9261 30.1949 60.6246 29.7215 60.1715 29.4065L58.4664 28.1634V27.5535C58.4664 27.291 58.2418 27.0783 57.9643 27.0783C57.6873 27.0783 57.4627 27.291 57.4627 27.5535V28.1712L55.8411 29.3828C55.3844 29.6944 55.0824 30.1695 55.0054 30.6977C54.9529 30.9596 54.9529 31.2281 55.0054 31.49H54.8882C54.6112 31.49 54.3867 31.7027 54.3867 31.9651C54.3867 32.2276 54.6112 32.4403 54.8882 32.4403H55.1558V34.8955H47.9744V32.4403H48.0998C48.3768 32.4403 48.6013 32.2276 48.6013 31.9651C48.5972 31.7115 48.3838 31.506 48.1167 31.4977C48.1634 31.2358 48.1634 30.9679 48.1167 30.7054C48.0322 30.18 47.7318 29.7071 47.2805 29.3911L45.5753 28.1634V27.5535C45.5753 27.291 45.3502 27.0783 45.0732 27.0783C44.7962 27.0783 44.5717 27.291 44.5717 27.5535V28.1712L42.95 29.3828C42.4934 29.6944 42.1913 30.1695 42.1138 30.6977C42.0619 30.9596 42.0619 31.2281 42.1138 31.49H41.9884C41.7114 31.49 41.4869 31.7027 41.4869 31.9651C41.4869 32.2276 41.7114 32.4403 41.9884 32.4403H42.2561V33.1767H42.0805L39.8902 31.7353V31.6801V30.5154C39.9007 29.7309 39.3035 29.0569 38.486 28.9315C38.4982 28.8795 38.4982 28.8254 38.486 28.7735V26.4685C38.6137 26.4618 38.7338 26.4077 38.8201 26.3176C39.6284 25.4524 39.9899 24.2922 39.8068 23.1497C39.7258 22.6491 39.5438 22.1679 39.2715 21.7321V21.6608V20.0768C39.2738 19.9498 39.2219 19.8277 39.1274 19.7382C39.0324 19.6487 38.9035 19.5995 38.77 19.6012C38.493 19.6012 38.2685 19.8144 38.2685 20.0768V20.6868V20.6862C38.1448 20.5929 38.0166 20.5056 37.8836 20.4249L34.1719 18.1359V16.1558C34.1672 15.332 33.4616 14.6668 32.5921 14.6668H32.4248C32.0043 14.6624 31.5996 14.8177 31.2999 15.0967C31.0001 15.3762 30.8304 15.7575 30.8281 16.1558V18.1359L26.9822 20.3851C26.8486 20.4724 26.7145 20.5591 26.5891 20.6541V20.0365V20.037C26.5891 19.7746 26.3646 19.5619 26.0876 19.5619C25.8106 19.5619 25.5861 19.7746 25.5861 20.037V21.621C25.582 21.6447 25.582 21.6685 25.5861 21.6922C25.3109 22.127 25.1295 22.6088 25.0514 23.1099C24.8677 24.2524 25.2292 25.4132 26.0375 26.2784C26.1238 26.3684 26.2439 26.4226 26.3722 26.4286V28.7496C26.3594 28.8016 26.3594 28.8557 26.3722 28.9076C25.5575 29.0369 24.9645 29.7099 24.9761 30.4916V31.6717V31.727L22.7858 33.1684H22.6103V32.4319H22.7356V32.4325C23.0126 32.4325 23.2372 32.2198 23.2372 31.9573C23.2325 31.7037 23.0197 31.4982 22.752 31.4899C22.8033 31.228 22.8033 30.9595 22.752 30.6976C22.668 30.1722 22.3671 29.6993 21.9163 29.3827L20.2776 28.1633V27.5534C20.2776 27.291 20.0531 27.0783 19.7761 27.0783C19.4991 27.0783 19.274 27.291 19.274 27.5534V28.1711L17.6523 29.3827C17.1986 29.6971 16.8971 30.1705 16.8166 30.6976C16.7641 30.9595 16.7641 31.228 16.8166 31.4899H16.6913C16.4143 31.4899 16.1892 31.7026 16.1892 31.965C16.1892 32.2275 16.4143 32.4402 16.6913 32.4402H16.9589V34.8954H9.78556V32.4402H9.978C10.255 32.4402 10.4795 32.2275 10.4795 31.965C10.4795 31.7026 10.255 31.4899 9.978 31.4899H9.92785C9.97975 31.228 9.97975 30.9595 9.92785 30.6976C9.8468 30.1705 9.54589 29.6971 9.09161 29.3827L7.41975 28.1633V27.5534C7.41975 27.291 7.19524 27.0783 6.91824 27.0783C6.64123 27.0783 6.41672 27.291 6.41672 27.5534V28.1711L4.78622 29.3827C4.33545 29.6993 4.03453 30.1722 3.95056 30.6976C3.90215 30.9595 3.90215 31.2275 3.95056 31.4899H3.90041C3.62282 31.4899 3.39831 31.7026 3.39831 31.965C3.39831 32.2275 3.62282 32.4402 3.90041 32.4402H4.09285L4.09227 47.0535H1.06623C0.922772 47.0359 0.778732 47.0773 0.670275 47.1679C0.56181 47.258 0.5 47.3884 0.5 47.5248C0.5 47.6613 0.561813 47.7917 0.670275 47.8817C0.778741 47.9723 0.922778 48.0138 1.06623 47.9961H63.9338C64.0772 48.0138 64.2213 47.9723 64.3297 47.8817C64.4382 47.7917 64.5 47.6613 64.5 47.5248C64.5 47.3884 64.4382 47.258 64.3297 47.1679C64.2213 47.0773 64.0772 47.0359 63.9338 47.0535L63.9334 47.0541ZM13.8911 45.2717V44.0838C13.8911 43.8214 13.6666 43.6087 13.3896 43.6087C13.1126 43.6087 12.8881 43.8214 12.8881 44.0838V45.2717H9.78636V42.1038H17.0262V45.2717H13.8911ZM7.46253 45.2717V44.0838C7.46253 43.8214 7.23802 43.6087 6.96102 43.6087C6.68344 43.6087 6.45893 43.8214 6.45893 44.0838V45.2717H5.13808V42.1038H8.78276V45.2717H7.46253ZM23.0122 34.1833H30.946C30.9332 34.291 30.9332 34.3998 30.946 34.5081V34.9518H21.9253V34.1833H23.0122ZM43.0763 34.1833V34.9755H34.1063V34.5319C34.1022 34.4219 34.0853 34.3131 34.0556 34.207H43.0844L43.0763 34.1833ZM58.0318 43.6877C57.7548 43.6877 57.5303 43.9004 57.5303 44.1629V45.2717H56.2177V42.1038H59.8623V45.2717H58.5421V44.0839C58.5421 43.9579 58.489 43.8369 58.3951 43.748C58.3007 43.6584 58.1735 43.6087 58.04 43.6087L58.0318 43.6877ZM52.1129 45.2717V44.0838C52.1129 43.8214 51.8884 43.6087 51.6114 43.6087C51.3344 43.6087 51.1099 43.8214 51.1099 44.0838V45.2717H47.9749V42.1038H55.2147V45.2717H52.1129ZM45.0405 45.2717H43.3686V42.1038H47.0133V45.2717H45.0405ZM27.9442 35.8623V37.2009H24.5246V35.8623H27.9442ZM29.7916 35.8623V43.5292H28.9554L28.956 35.8623H29.7916ZM31.4053 35.8623H34.2142V37.2009H30.8284V35.8623H31.4053ZM36.0616 35.8623V43.5292H35.2254L35.226 35.8623H36.0616ZM40.4843 35.8623V37.2009H37.0647V35.8623H40.4843ZM42.3235 35.8623V43.5292H41.4872V35.8623H42.3235ZM22.6774 44.4801H42.3235V45.2723L22.6774 45.2718V44.4801ZM27.9443 39.5773H24.5248V38.1435H27.9437L27.9443 39.5773ZM24.5248 40.5198H27.9437L27.9443 43.5292H24.5248L24.5248 40.5198ZM34.2138 39.5695L30.8286 39.569V38.1436H34.2475L34.2138 39.5695ZM30.8286 40.5198H34.2475V43.5292H30.8286V40.5198ZM40.5176 39.5695L37.0647 39.569V38.1436H40.4837L40.5176 39.5695ZM37.0647 40.5198H40.4837L40.4842 43.5292H37.0647L37.0647 40.5198ZM23.5216 43.5292H22.6853L22.6859 35.8623H23.5222L23.5216 43.5292ZM56.2183 32.4805H59.863V37.2331L56.2183 37.2325V32.4805ZM59.8636 38.1435V41.2088H56.2183V38.1435H59.8636ZM55.2153 41.2088H47.9755V38.1435H55.2153V41.2088ZM46.9724 41.2088H43.3691V38.1435H47.0138L46.9724 41.2088ZM33.1028 34.4684V34.9121H31.9073V34.4684C31.9849 34.0872 32.1902 33.7402 32.4928 33.4783C32.8025 33.738 33.0165 34.085 33.1028 34.4684ZM21.6748 41.2165H18.0295V38.1435H21.6742L21.6748 41.2165ZM17.0264 41.2165H9.78663V38.1435H17.0264V41.2165ZM5.13829 38.1435H8.78297V41.2088H5.13829V38.1435ZM5.13829 32.4722H8.78297V37.2247H5.13829V32.4722ZM18.0295 42.1673H21.6742V45.3352H18.0295V42.1673ZM45.6176 46.2386H59.8296V47.0308H45.6176V46.2386ZM56.0263 30.8402C56.0631 30.5651 56.2129 30.3143 56.4439 30.1435L57.9823 29.0032L59.6541 30.1518V30.1513C59.8816 30.3209 60.0285 30.5684 60.0641 30.8402C60.0979 31.0657 60.0658 31.2961 59.9719 31.5054H56.118C56.0241 31.296 55.9919 31.0657 56.0263 30.8402ZM55.1901 35.8619V37.2005H47.9754V35.8619H55.1901ZM43.1346 30.8402C43.1748 30.564 43.3276 30.3137 43.5615 30.1435L45.0911 29.0032L46.7629 30.1518V30.1513C46.988 30.3214 47.1321 30.5695 47.1641 30.8402C47.2009 31.0651 47.1717 31.2955 47.0807 31.5054H43.2348C43.138 31.2966 43.1037 31.0668 43.1346 30.8402ZM43.369 32.4801H47.0137V37.2327L43.369 37.2321V35.8619H43.628C43.905 35.8619 44.1295 35.6492 44.1295 35.3868V33.668C44.1295 33.4056 43.905 33.1929 43.628 33.1929H43.369V32.4801ZM35.4773 27.3558V27.3552C35.2003 27.3552 34.9752 27.5679 34.9752 27.8309V28.9238H33.0024V27.8464C33.0024 27.584 32.7779 27.3713 32.5009 27.3713C32.2239 27.3713 31.9994 27.584 31.9994 27.8464V28.9392L30.0679 28.9398V27.8464C30.0679 27.584 29.8434 27.3713 29.5664 27.3713C29.2894 27.3713 29.0649 27.584 29.0649 27.8464V28.9392H27.393V28.9398C27.3971 28.8945 27.3971 28.8497 27.393 28.805V26.4762H37.6005V28.789C37.5964 28.8337 37.5964 28.8791 37.6005 28.9238H35.9286V27.8464C35.9327 27.7194 35.8831 27.5956 35.7904 27.5028C35.6977 27.4105 35.57 27.3575 35.4353 27.3553L35.4773 27.3558ZM33.6042 18.9281L37.5172 21.1933C38.3021 21.6547 38.8333 22.4193 38.9715 23.2845C39.0969 24.0801 38.8736 24.8901 38.3528 25.526H34.1728V24.5359C34.1687 24.321 34.1238 24.1094 34.0392 23.91C33.8001 23.3519 33.3541 22.8956 32.7849 22.6271C32.6455 22.574 32.4898 22.574 32.3504 22.6271C31.7702 22.8845 31.3072 23.3315 31.0465 23.8862C30.9515 24.1022 30.9001 24.3337 30.8955 24.5674V25.5575H26.649C26.1312 24.9205 25.9108 24.111 26.0385 23.316C26.1767 22.4508 26.7085 21.6862 27.4934 21.2248L31.3644 18.9596L33.6042 18.9281ZM31.9323 24.5358C31.9306 24.4275 31.9504 24.3198 31.9912 24.2187C32.1015 23.9717 32.2881 23.7623 32.526 23.617C32.7592 23.7667 32.9447 23.975 33.0613 24.2187C33.098 24.3209 33.1179 24.4281 33.1196 24.5358V25.5259H31.9073L31.9323 24.5358ZM32.6094 15.6174V15.6169C32.761 15.6152 32.9068 15.671 33.0141 15.7727C33.1214 15.8738 33.1803 16.0125 33.178 16.1556V17.9771L31.849 17.9777V16.1556C31.8466 16.0125 31.9055 15.8738 32.0128 15.7727C32.1201 15.671 32.2659 15.6152 32.4175 15.6169L32.6094 15.6174ZM26.0384 30.5151C26.0384 30.1609 26.3416 29.8736 26.7154 29.8736H38.2863C38.6613 29.8736 38.9669 30.1598 38.9715 30.5151V31.2201H26.0384V30.5151ZM26.1638 32.1703L38.8379 32.1709L40.3843 33.1924H33.5539C33.3311 32.925 33.0821 32.6786 32.8098 32.456C32.6255 32.3123 32.3596 32.3123 32.1747 32.456C31.9042 32.6775 31.6575 32.9245 31.4388 33.1924H24.6172L26.1638 32.1703ZM21.4233 33.1919L21.4239 33.1924C21.1469 33.1924 20.9224 33.4051 20.9224 33.6676V35.3863C20.9224 35.6488 21.1469 35.8615 21.4239 35.8615H21.6747V37.2002H18.0294V32.4476H21.6741V33.1603L21.4233 33.1919ZM17.8451 30.8156L17.8457 30.8161C17.8789 30.5399 18.0299 30.288 18.2638 30.1195L19.7934 28.9791L21.4652 30.1277V30.1272C21.6903 30.2974 21.8344 30.5454 21.867 30.8161C21.9073 31.041 21.8781 31.272 21.783 31.4813H17.9371H17.9377C17.8444 31.2802 17.8123 31.0576 17.8456 30.8399L17.8451 30.8156ZM17.0088 35.8372V37.1759L9.7865 37.1764V35.8615L17.0088 35.8372ZM4.95454 30.8399C4.98778 30.5637 5.13882 30.3117 5.37266 30.1432L6.90225 29.0029L8.57411 30.1515V30.151C8.7992 30.3211 8.94325 30.5692 8.97532 30.8399C9.01614 31.0648 8.98698 31.2957 8.89193 31.5051H5.04601H5.04659C4.94862 31.2968 4.91664 31.0653 4.95454 30.8399ZM5.14699 46.2368H19.2756V47.0291H5.14699V46.2368ZM20.2787 47.0291V46.2844H44.6482V47.0291H20.2787Z" fill="#E6E6E6"/>
<path id="Vector_2" d="M6.96044 39.2764C6.68053 39.2853 6.45834 39.5024 6.45834 39.7676C6.45834 40.03 6.68285 40.2427 6.96044 40.2427C7.23744 40.2427 7.46195 40.03 7.46195 39.7676C7.46895 39.6383 7.4188 39.5118 7.32375 39.419C7.22869 39.3256 7.0969 39.2742 6.96044 39.2764Z" fill="#E6E6E6"/>
<path id="Vector_3" d="M13.3869 40.2424C13.6639 40.2424 13.8884 40.0297 13.8884 39.7673C13.8884 39.6419 13.8354 39.522 13.7409 39.4341C13.647 39.3463 13.5193 39.2977 13.3869 39.2999C13.107 39.3087 12.8848 39.5259 12.8854 39.7911C12.8988 40.0441 13.1192 40.243 13.3869 40.2424Z" fill="#E6E6E6"/>
<path id="Vector_4" d="M19.7781 40.2424C20.0551 40.2424 20.2796 40.0297 20.2796 39.7673C20.2796 39.6419 20.2266 39.522 20.1321 39.4341C20.0376 39.3463 19.9099 39.2977 19.7781 39.2999C19.4982 39.3087 19.276 39.5259 19.276 39.7911C19.2894 40.0441 19.5105 40.243 19.7781 40.2424Z" fill="#E6E6E6"/>
<path id="Vector_5" d="M58.0406 40.2424C58.3182 40.2424 58.5427 40.0297 58.5427 39.7673C58.5427 39.6419 58.4897 39.522 58.3952 39.4341C58.3007 39.3463 58.173 39.2977 58.0406 39.2999C57.9059 39.3021 57.7771 39.3551 57.6826 39.4468C57.5887 39.5391 57.5368 39.6629 57.5391 39.7911C57.5526 40.0441 57.7735 40.243 58.0406 40.2424Z" fill="#E6E6E6"/>
<path id="Vector_6" d="M51.6109 40.2424C51.8879 40.2424 52.1124 40.0297 52.1124 39.7673C52.1124 39.6419 52.0593 39.522 51.9649 39.4341C51.871 39.3463 51.7433 39.2977 51.6109 39.2999C51.331 39.3087 51.1094 39.5259 51.1094 39.7911C51.1228 40.0441 51.3432 40.243 51.6109 40.2424Z" fill="#E6E6E6"/>
<path id="Vector_7" d="M45.1474 40.2424C45.4244 40.2424 45.6495 40.0297 45.6495 39.7673C45.6495 39.6419 45.5958 39.522 45.5019 39.4341C45.4074 39.3463 45.2797 39.2977 45.1474 39.2999C44.868 39.3087 44.6458 39.5259 44.6458 39.7911C44.6593 40.0441 44.8803 40.243 45.1474 40.2424Z" fill="#E6E6E6"/>
<path id="Vector_8" d="M20.2796 43.7585C20.2796 43.6331 20.2266 43.5132 20.1321 43.4253C20.0376 43.3375 19.9099 43.2894 19.7781 43.2911C19.4982 43.2999 19.276 43.517 19.276 43.7822C19.276 44.0447 19.5011 44.2574 19.7781 44.2574C19.9152 44.2579 20.047 44.2043 20.142 44.1099C20.2365 44.0159 20.2866 43.8889 20.2796 43.7585Z" fill="#E6E6E6"/>
<path id="Vector_9" d="M45.1474 43.2679C44.868 43.2767 44.6458 43.4939 44.6458 43.759C44.6458 44.0215 44.8704 44.2342 45.1474 44.2342C45.4244 44.2342 45.6495 44.0215 45.6495 43.759C45.6559 43.6298 45.6063 43.5032 45.5112 43.4104C45.4162 43.3171 45.2844 43.2657 45.1474 43.2679Z" fill="#E6E6E6"/>
<path id="Vector_10" d="M6.96044 33.8028C6.82806 33.8006 6.70035 33.8487 6.60588 33.9365C6.51141 34.0249 6.45834 34.1448 6.45834 34.2702V35.4106C6.45834 35.673 6.68285 35.8857 6.96044 35.8857C7.23744 35.8857 7.46195 35.673 7.46195 35.4106V34.2702C7.46195 34.1448 7.40889 34.0249 7.31442 33.9365C7.21995 33.8487 7.09223 33.8006 6.96044 33.8028Z" fill="#E6E6E6"/>
<path id="Vector_11" d="M19.8511 33.8028C19.7187 33.8006 19.591 33.8487 19.4965 33.9365C19.4026 34.0249 19.349 34.1448 19.349 34.2702V35.4106C19.349 35.673 19.5741 35.8857 19.8511 35.8857C20.1281 35.8857 20.3526 35.673 20.3526 35.4106V34.2702C20.3526 34.1448 20.2995 34.0249 20.205 33.9365C20.1106 33.8487 19.9829 33.8006 19.8511 33.8028Z" fill="#E6E6E6"/>
<path id="Vector_12" d="M45.1474 35.886C45.4244 35.886 45.6495 35.6733 45.6495 35.4109V34.2706C45.6495 34.0081 45.4244 33.7954 45.1474 33.7954C44.8704 33.7954 44.6458 34.0081 44.6458 34.2706V35.4109C44.6458 35.5369 44.6989 35.6579 44.7928 35.7468C44.8867 35.8363 45.0144 35.886 45.1474 35.886Z" fill="#E6E6E6"/>
<path id="Vector_13" d="M58.0406 33.8028C57.9088 33.8006 57.7811 33.8487 57.6866 33.9365C57.5921 34.0249 57.5391 34.1448 57.5391 34.2702V35.4106C57.5391 35.673 57.7636 35.8857 58.0406 35.8857C58.3182 35.8857 58.5427 35.673 58.5427 35.4106V34.2702C58.5427 34.1448 58.4896 34.0249 58.3951 33.9365C58.3007 33.8487 58.1729 33.8006 58.0406 33.8028Z" fill="#E6E6E6"/>
</g>
</g>
<defs>
<clipPath id="clip0_64_1461">
<rect width="64" height="64" fill="white" transform="translate(0.5)"/>
</clipPath>
</defs>
</svg>
