<svg width="65" height="64" viewBox="0 0 65 64" fill="none" xmlns="http://www.w3.org/2000/svg">
<g id="noun-india-gate-2165507">
<g id="Group">
<path id="Vector" d="M43.5922 34.9558C43.9582 34.9558 44.2888 34.7293 44.4276 34.3825C44.567 34.0358 44.4879 33.6368 44.2278 33.3732C43.967 33.1088 43.5768 33.0326 43.2395 33.1788C42.9023 33.3251 42.6851 33.6657 42.6884 34.0406C42.6884 34.285 42.7843 34.5191 42.9539 34.6915C43.1236 34.8631 43.3535 34.9586 43.5922 34.9558ZM43.5922 33.7748C43.7316 33.7803 43.8423 33.8977 43.8423 34.0406C43.8423 34.3262 43.3327 34.3262 43.3327 34.0406C43.3327 33.8936 43.4487 33.7748 43.5922 33.7748Z" fill="#E6E6E6"/>
<path id="Vector_2" d="M22.2535 33.1155C21.8881 33.1155 21.5589 33.3414 21.4188 33.6868C21.2787 34.0328 21.3564 34.4311 21.6146 34.6954C21.8734 34.9598 22.2615 35.0394 22.5994 34.8959C22.9367 34.7524 23.1572 34.4153 23.1572 34.0411C23.1572 33.5302 22.7523 33.1155 22.2535 33.1155ZM22.0034 34.0411C21.9887 33.9635 22.0088 33.8824 22.0577 33.8213C22.1073 33.7602 22.1811 33.7245 22.2582 33.7245C22.336 33.7245 22.409 33.7602 22.4587 33.8213C22.5083 33.8824 22.5277 33.9635 22.513 34.0411C22.5036 34.3267 22.0034 34.3267 22.0034 34.0411Z" fill="#E6E6E6"/>
<path id="Vector_3" d="M38.3234 14.9138C37.9346 14.9138 37.5839 15.1535 37.4351 15.5215C37.2863 15.8895 37.3687 16.3125 37.6436 16.594C37.9185 16.8755 38.3321 16.96 38.6908 16.8076C39.0502 16.6551 39.2842 16.2967 39.2842 15.8985C39.2842 15.3546 38.8544 14.9138 38.3234 14.9138ZM38.1505 15.8985C38.1505 15.8003 38.2276 15.7213 38.3234 15.7213C38.3684 15.7213 38.4113 15.7399 38.4421 15.7735C38.4736 15.8072 38.489 15.8525 38.487 15.8985C38.487 16.1148 38.1505 16.1148 38.1505 15.9575L38.1505 15.8985Z" fill="#E6E6E6"/>
<path id="Vector_4" d="M27.7146 14.9138C27.3257 14.9138 26.9751 15.1535 26.8262 15.5215C26.6781 15.8895 26.7598 16.3125 27.0347 16.594C27.3096 16.8755 27.7233 16.96 28.0826 16.8076C28.4413 16.6551 28.6753 16.2967 28.6753 15.8985C28.6753 15.3546 28.2456 14.9138 27.7146 14.9138ZM27.5416 15.8985C27.5416 15.8003 27.6187 15.7213 27.7146 15.7213C27.8064 15.7261 27.8781 15.8044 27.8781 15.8985C27.8781 16.1148 27.5416 16.1148 27.5416 15.9575V15.8985Z" fill="#E6E6E6"/>
<path id="Vector_5" d="M58.0282 53.6094H48.9068V52.0837C48.9068 51.7576 48.6486 51.4932 48.3302 51.4932H47.2152V43.382H47.5129C47.8314 43.382 48.0895 43.1176 48.0895 42.7915C48.0895 42.4653 47.8314 42.2009 47.5129 42.2009H47.2152V39.2477H47.6095H47.6088C47.9272 39.2477 48.186 38.9834 48.186 38.6572C48.186 38.331 47.9272 38.066 47.6088 38.066H47.2146V28.2225L49.3097 26.5491H49.3103C49.5108 26.3981 49.5892 26.1289 49.5028 25.89C49.4243 25.6538 49.2078 25.4959 48.9644 25.4959H47.2153V21.8636C47.2153 21.5374 46.9572 21.2731 46.6381 21.2731H45.5137V18.7139C45.5137 18.3878 45.2556 18.1234 44.9371 18.1234H43.7645V13.0733C43.7645 12.7472 43.5064 12.4828 43.188 12.4828H39.7948L37.5649 10.9077V9.92307V9.92376C37.5649 9.5976 37.3068 9.33325 36.9884 9.33325H29.0785C28.76 9.33325 28.5013 9.5976 28.5013 9.92376V10.9084L26.2714 12.4835L22.8501 12.4828C22.5316 12.4828 22.2735 12.7472 22.2735 13.0733V18.1132H21.0909C20.7724 18.1132 20.5143 18.3776 20.5143 18.7044V21.2636H19.2076C18.8885 21.2636 18.6303 21.5279 18.6303 21.8541V25.5846H16.8812C16.6379 25.5846 16.4213 25.7425 16.3429 25.9787C16.2564 26.2177 16.3348 26.4868 16.5353 26.6379L18.6304 28.3112V38.1548H18.4286C18.1101 38.1548 17.852 38.4198 17.852 38.7459C17.852 39.0721 18.1101 39.3365 18.4286 39.3365H18.6304V42.2897H18.3327C18.0143 42.2897 17.7562 42.554 17.7562 42.8802C17.7562 43.2064 18.0143 43.4707 18.3327 43.4707H18.6304V51.4934H17.5443C17.2258 51.4934 16.9677 51.7577 16.9677 52.0839V53.6096H7.81766C7.6534 53.5876 7.4878 53.6391 7.36311 53.7517C7.2384 53.8636 7.16667 54.0257 7.16667 54.1953C7.16667 54.3649 7.23841 54.5269 7.36311 54.6388C7.48781 54.7514 7.65341 54.8029 7.81766 54.7809H58.0287C58.193 54.8029 58.3586 54.7514 58.4833 54.6388C58.608 54.5269 58.6797 54.3648 58.6797 54.1953C58.6797 54.0257 58.608 53.8636 58.4833 53.7517C58.3586 53.6391 58.193 53.5876 58.0287 53.6096L58.0282 53.6094ZM46.0614 51.4932H41.0352V43.382H46.0621L46.0614 51.4932ZM39.8813 32.1893V38.0958H38.9199L38.9205 38.0951C38.8689 38.0896 38.818 38.0896 38.7663 38.0951C38.533 36.7871 37.8894 35.5931 36.934 34.693C35.9786 33.7921 34.7625 33.2352 33.4705 33.1048V32.1201L39.8813 32.1893ZM38.9199 39.2767H39.8813V42.2299H38.9199V39.2767ZM32.3462 33.1436C31.0643 33.2734 29.8575 33.8213 28.9034 34.7078C27.9494 35.5942 27.2997 36.7718 27.0503 38.0655H25.9642V32.159L32.3462 32.1597L32.3462 33.1436ZM26.9444 39.2862V42.2394H25.983V39.2862H26.9444ZM28.0976 39.2367C28.0976 37.479 29.014 35.8537 30.5004 34.9748C31.9875 34.0953 33.8198 34.0953 35.3061 34.9748C36.7932 35.8537 37.709 37.479 37.709 39.2367V53.6087H28.117L28.0976 39.2367ZM38.901 43.3805H39.8624V53.6087H38.901V43.3805ZM46.0613 42.1995L41.035 42.2002V39.247H46.062L46.0613 42.1995ZM19.7844 28.6159H46.0613V29.4035H19.7844V28.6159ZM29.3958 11.7049C29.5473 11.593 29.6365 11.4138 29.6358 11.2222V10.5431H36.4314V11.2222C36.4341 11.4152 36.5273 11.5944 36.6808 11.7049L37.7864 12.4829L28.2709 12.4822L29.3958 11.7049ZM23.4463 13.6735H42.6692V18.1227H23.4463V13.6735ZM21.6878 19.3038H44.3604V21.2723H21.6689L21.6878 19.3038ZM19.7657 22.4541H46.0615V25.594H19.7846L19.7657 22.4541ZM19.2079 26.7847H47.2818L46.4357 27.4542H19.4087L18.5626 26.7847H19.2079ZM19.7844 30.6038L46.0614 30.6045V38.1053H41.0351V31.5987C41.0351 31.2725 40.7763 31.0082 40.4579 31.0082H25.3877C25.0692 31.0082 24.8104 31.2725 24.8104 31.5987V38.1053H19.7842L19.7844 30.6038ZM19.7844 39.3055H24.8114V42.2587L19.7844 42.2594V39.3055ZM19.7844 43.4006H24.8114L24.8107 51.4925H19.7845L19.7844 43.4006ZM18.0929 52.6736H24.8207V53.6582H18.0929V52.6736ZM25.9645 52.0831V43.3814H26.9259L26.9252 53.6088H25.9638L25.9645 52.0831ZM41.0354 53.6088V52.6241H47.7632V53.6088H41.0354Z" fill="#E6E6E6"/>
</g>
</g>
</svg>
