<svg width="65" height="38" viewBox="0 0 65 38" fill="none" xmlns="http://www.w3.org/2000/svg">
<path d="M63.8739 36.2471H59.9399V23.0571V22.9828L61.791 20.8999V20.9005C61.9343 20.7372 61.9666 20.5047 61.8743 20.3078C61.7826 20.1141 61.5889 19.9882 61.3745 19.9843H59.9489V17.4386H60.5507C60.8574 17.4386 61.1059 17.19 61.1059 16.8833C61.1059 16.5766 60.8574 16.3281 60.5507 16.3281H59.9489V14.2174C59.9489 13.9107 59.7004 13.6621 59.3937 13.6621H46.3889V6.25708C46.3889 4.68363 44.88 2.86936 44.399 2.33284V0.888517C44.399 0.581828 44.1504 0.333252 43.8438 0.333252C43.5371 0.333252 43.2878 0.581828 43.2878 0.888517V2.30443C42.7694 2.90617 41.3071 4.72952 41.3071 6.18288L41.3077 6.18353V8.74746C41.0617 8.62737 40.7938 8.56151 40.5206 8.55311C40.0254 8.56344 39.5567 8.77781 39.2248 9.14517C38.891 8.77005 38.4126 8.5544 37.9103 8.55311C37.4151 8.56086 36.9451 8.77587 36.6145 9.14517C36.2561 8.80427 35.7764 8.6209 35.2819 8.6364C34.7866 8.64673 34.3179 8.86109 33.986 9.22846C33.6516 8.85334 33.1738 8.63769 32.6715 8.6364C32.1763 8.64673 31.7075 8.86109 31.3757 9.22846C31.0309 8.85721 30.5492 8.64285 30.0431 8.6364C29.5478 8.64673 29.0785 8.86109 28.7472 9.22846C28.4128 8.85334 27.935 8.63769 27.4327 8.6364C26.9368 8.64415 26.4675 8.85916 26.1369 9.22846C25.796 8.85141 25.3117 8.6364 24.8036 8.6364C24.5499 8.6448 24.3006 8.70807 24.0727 8.82106V6.26688C24.0727 4.69344 22.5638 2.87917 22.0828 2.34265V0.888633C22.0828 0.581944 21.8343 0.33337 21.5276 0.33337C21.2202 0.33337 20.9717 0.581944 20.9717 0.888633V2.30455C20.4442 2.90629 18.9818 4.72963 18.9818 6.183V13.588H5.66264C5.35595 13.588 5.10673 13.8372 5.10673 14.1439V16.1991H4.63476V16.1985C4.32807 16.1985 4.07949 16.447 4.07949 16.7537C4.07949 17.0604 4.32807 17.3096 4.63476 17.3096H5.10673V19.8367L3.81092 19.8361C3.58687 19.8238 3.3764 19.9478 3.27955 20.1505C3.18206 20.3532 3.21693 20.5947 3.36672 20.7619L5.06091 23.0572V36.2473H1.12692C0.968733 36.2266 0.808606 36.2751 0.688525 36.3809C0.569079 36.4862 0.5 36.6386 0.5 36.798C0.5 36.9575 0.569084 37.1099 0.688525 37.2151C0.808616 37.321 0.968738 37.3694 1.12692 37.3488H63.8731C64.0313 37.3694 64.1907 37.321 64.3108 37.2151C64.4309 37.1099 64.5 36.9575 64.5 36.798C64.5 36.6385 64.4309 36.4862 64.3108 36.3809C64.1907 36.2751 64.0313 36.2266 63.8731 36.2473L63.8739 36.2471ZM14.992 36.016H9.90101V31.3879H14.992V36.016ZM9.9663 30.2678C10.273 28.8919 11.1659 27.7187 12.4101 27.0556C13.6691 27.7336 14.5814 28.9144 14.9185 30.3045H9.9663V30.2678ZM18.9635 36.2104H16.1032V30.8599C16.1071 30.8263 16.1071 30.7921 16.1032 30.7585C15.9735 27.5374 12.7988 26.0194 12.66 25.9549V25.9543C12.5121 25.8897 12.3442 25.8897 12.197 25.9543C12.0582 26.0188 8.94816 27.509 8.81841 30.7676C8.81325 30.7986 8.81325 30.8296 8.81841 30.8599V36.2473H6.17118V23.7235H18.9629L18.9635 36.2104ZM18.9635 22.5762H6.07892L4.94063 21.0395H18.9629L18.9635 22.5762ZM18.9635 19.9289H6.17115V17.4387H18.9629L18.9635 19.9289ZM18.9635 16.2913H6.17115V14.8283H18.9629L18.9635 16.2913ZM21.5274 3.33316V3.33252C22.1221 4.02917 22.5779 4.83365 22.8691 5.70207H20.1574C20.4693 4.84013 20.9335 4.04077 21.5275 3.34227L21.5274 3.33316ZM22.9434 36.2385H20.0741V32.7577H22.9434V36.2385ZM22.9434 31.6104H20.0741V23.7238H22.9434V31.6104ZM22.9434 22.5765H20.0741V21.0767H22.9434V22.5765ZM22.9434 19.9293H20.0741V14.7732H22.9434V19.9293ZM22.9434 10.5344V13.6257H20.0741V10.4413H22.9434V10.5344ZM22.9434 9.29408H22.0175V8.60905C22.0175 8.30236 21.7689 8.05378 21.4622 8.05378C21.1555 8.05378 20.907 8.30236 20.907 8.60905V9.29408H19.9811V6.82255H22.8503L22.9434 9.29408ZM37.1974 10.5344C37.209 10.3588 37.2664 10.1896 37.3639 10.0437C37.4834 9.84029 37.7023 9.71697 37.9379 9.71956C38.1742 9.72408 38.3944 9.84094 38.5306 10.034C38.6346 10.1818 38.6978 10.3542 38.7153 10.5344V11.0528L37.1974 11.0522V10.5344ZM34.569 10.5344C34.5806 10.3588 34.6381 10.1896 34.7355 10.0437C34.855 9.84029 35.0739 9.71697 35.3095 9.71956C35.5523 9.69438 35.7867 9.81899 35.9016 10.034C36.0055 10.1818 36.0695 10.3542 36.0869 10.5344V11.0528L34.569 11.0522V10.5344ZM31.9406 10.5344C31.9516 10.3588 32.009 10.1896 32.1072 10.0437C32.2266 9.84029 32.4455 9.71697 32.6805 9.71956C32.9194 9.71569 33.1428 9.83449 33.2732 10.034C33.3772 10.1818 33.4404 10.3542 33.4585 10.5344V11.0528L31.9406 11.0522V10.5344ZM29.3122 10.5344H29.3115C29.3232 10.3588 29.3806 10.1896 29.4781 10.0437C29.6021 9.84029 29.8235 9.71761 30.0611 9.71956C30.3136 9.72731 30.5415 9.87323 30.6538 10.0992C30.7578 10.2471 30.8211 10.4188 30.8391 10.5989V11.1174H29.3115L29.3122 10.5344ZM26.6838 10.5344H26.6832C26.6941 10.3588 26.7516 10.1896 26.8497 10.0437C26.9692 9.84029 27.1881 9.71697 27.4237 9.71956C27.6607 9.71892 27.8834 9.83707 28.0158 10.034C28.1197 10.1818 28.1836 10.3542 28.2011 10.5344V11.0528L26.6832 11.0522L26.6838 10.5344ZM24.0554 10.5344H24.0541C24.0657 10.3588 24.1232 10.1896 24.2207 10.0437C24.3485 9.84546 24.5681 9.72601 24.8037 9.72601C25.0394 9.72601 25.2595 9.84545 25.3874 10.0437C25.4907 10.1915 25.5546 10.3633 25.572 10.5434V11.0619H24.0541L24.0554 10.5344ZM27.1468 36.21H24.0541V34.9045H27.1454L27.1468 36.21ZM37.3288 36.21H28.2567V28.805C28.2567 25.9267 31.9588 24.5289 32.7827 24.2512C33.6066 24.5379 37.3183 26.0009 37.3183 28.805L37.3288 36.21ZM41.355 36.21H38.4289V34.9045H41.3447L41.355 36.21ZM41.355 33.7572H38.4289V28.805C38.4289 24.853 33.1713 23.2053 32.9493 23.1401C32.8473 23.1079 32.7369 23.1079 32.6349 23.1401C32.4128 23.1957 27.1462 24.7504 27.1462 28.805V33.8029H24.0542V21.0759H41.3448L41.355 33.7572ZM41.355 19.9286H24.0544V17.4384H25.1004V18.6606C25.1004 18.9673 25.3489 19.2159 25.6556 19.2159C25.9623 19.2159 26.2115 18.9673 26.2115 18.6606V17.4384H28.4054V18.66L28.4047 18.6606C28.4022 18.8085 28.4603 18.9512 28.5649 19.0557C28.6695 19.1603 28.8122 19.2185 28.96 19.2159C29.2667 19.2159 29.5153 18.9673 29.5153 18.6606V17.4384H31.6995V18.66L31.7002 18.6606C31.7002 18.9673 31.9488 19.2159 32.2554 19.2159C32.5621 19.2159 32.8107 18.9673 32.8107 18.6606V17.4384H34.995V18.6606C34.995 18.9673 35.2435 19.2159 35.5509 19.2159C35.8576 19.2159 36.1061 18.9673 36.1061 18.6606V17.4384H38.2904V18.6606C38.2904 18.9673 38.539 19.2159 38.8457 19.2159C38.9935 19.2185 39.1369 19.1604 39.2415 19.0558C39.346 18.9512 39.4035 18.8085 39.4009 18.6606V17.4384H41.3075L41.355 19.9286ZM41.355 16.291H24.0544V14.7724H41.3451L41.355 16.291ZM41.355 13.6251H24.0544V12.1995H41.3451L41.355 13.6251ZM41.355 11.0522L39.8267 11.0516V10.5331V10.5338C39.8383 10.3581 39.8958 10.189 39.9933 10.0431C40.1127 9.83968 40.3316 9.71635 40.5673 9.71895C40.8094 9.69893 41.0406 9.82161 41.1594 10.0334C41.2633 10.1812 41.3272 10.3536 41.3447 10.5337L41.355 11.0522ZM43.9098 3.30506L43.9085 3.30442C44.5038 4.00107 44.959 4.80555 45.2508 5.67397H42.5294C42.8445 4.82172 43.3087 4.03208 43.8995 3.34194L43.9098 3.30506ZM45.3257 36.2104H42.4552V32.7573H45.3155L45.3257 36.2104ZM45.3257 31.5823H42.4552V23.7234H45.3155L45.3257 31.5823ZM45.3257 22.5484H42.4552V21.0763H45.3155L45.3257 22.5484ZM45.3257 19.9012H42.4552V14.7728H45.3155L45.3257 19.9012ZM45.3257 13.5976H42.4552V10.441H45.3155L45.3257 13.5976ZM45.3257 9.26596H44.3999V8.58093H44.3992C44.3992 8.27424 44.1506 8.02567 43.844 8.02567C43.5373 8.02567 43.288 8.27424 43.288 8.58093V9.26596H42.4177L42.4184 6.8222H45.2786L45.3257 9.26596ZM46.3891 14.7727H58.8385V16.3274L46.3891 16.328V14.7727ZM46.3891 17.4386H58.8385V19.9656H46.3891V17.4386ZM55.0525 36.0151H49.9615L49.9621 31.3871H55.0531L55.0525 36.0151ZM50.0268 30.267C50.3341 28.8911 51.2264 27.7179 52.4705 27.0548C53.7218 27.7243 54.6328 28.8903 54.9789 30.267H50.0268ZM58.8296 36.2095H56.1728V30.859C56.1779 30.8132 56.1779 30.7667 56.1728 30.7202C56.0152 27.5269 52.8684 26.018 52.7386 25.9533C52.5882 25.8894 52.4177 25.8894 52.2666 25.9533C52.1278 26.0179 48.99 27.5177 48.888 30.8124L48.8887 30.8131C48.8874 30.8286 48.8874 30.8441 48.8887 30.8589V36.2463H46.3894V23.7225H58.7923L58.8296 36.2095ZM58.765 22.5754H46.3892V21.0755H60.0977L58.765 22.5754Z" fill="#E6E6E6"/>
</svg>
